<mxfile host="app.diagrams.net" modified="2023-02-21T11:53:37.722Z" agent="5.0 (Windows NT 10.0; Win64; x64) AppleWebKit/537.36 (KHTML, like Gecko) Chrome/110.0.0.0 Safari/537.36" etag="-8zULdxBOIz59C-TjKPT" version="20.8.21" type="github">
  <diagram name="페이지-1" id="3IkyJwx9pa-JVk1yRqCE">
    <mxGraphModel dx="1506" dy="594" grid="1" gridSize="10" guides="1" tooltips="1" connect="1" arrows="1" fold="1" page="1" pageScale="1" pageWidth="827" pageHeight="1169" math="0" shadow="0">
      <root>
        <mxCell id="0" />
        <mxCell id="1" parent="0" />
        <mxCell id="q97o4FapM_IkvxlOUpJy-2" value="" style="rounded=0;whiteSpace=wrap;html=1;" vertex="1" parent="1">
          <mxGeometry x="290" y="120" width="410" height="210" as="geometry" />
        </mxCell>
        <mxCell id="q97o4FapM_IkvxlOUpJy-3" value="Actor" style="shape=umlActor;verticalLabelPosition=bottom;verticalAlign=top;html=1;outlineConnect=0;" vertex="1" parent="1">
          <mxGeometry x="140" y="190" width="30" height="60" as="geometry" />
        </mxCell>
        <mxCell id="q97o4FapM_IkvxlOUpJy-7" style="edgeStyle=orthogonalEdgeStyle;rounded=0;orthogonalLoop=1;jettySize=auto;html=1;exitX=0;exitY=0.5;exitDx=0;exitDy=0;fontSize=18;endArrow=none;endFill=0;" edge="1" parent="1" source="q97o4FapM_IkvxlOUpJy-5">
          <mxGeometry relative="1" as="geometry">
            <mxPoint x="180" y="225" as="targetPoint" />
          </mxGeometry>
        </mxCell>
        <mxCell id="q97o4FapM_IkvxlOUpJy-5" value="&lt;b&gt;&lt;font style=&quot;font-size: 18px;&quot;&gt;유스케이스&lt;/font&gt;&lt;/b&gt;" style="ellipse;whiteSpace=wrap;html=1;" vertex="1" parent="1">
          <mxGeometry x="407.5" y="170" width="175" height="110" as="geometry" />
        </mxCell>
        <mxCell id="q97o4FapM_IkvxlOUpJy-6" value="&lt;b&gt;시스템경계(주제)&lt;/b&gt;" style="text;html=1;strokeColor=none;fillColor=none;align=center;verticalAlign=middle;whiteSpace=wrap;rounded=0;fontSize=18;" vertex="1" parent="1">
          <mxGeometry x="410" y="130" width="170" height="30" as="geometry" />
        </mxCell>
      </root>
    </mxGraphModel>
  </diagram>
</mxfile>
